<svg class="svg-icon" style="width: 1em; height: 1em;vertical-align: middle;fill: lightgray;overflow: hidden;" viewBox="0 0 1024 1024" version="1.1" xmlns="http://www.w3.org/2000/svg"><path d="M303.845193 890.605897c-2.653433 0-4.635577-0.669242-5.957689-1.991354-6.618744-2.644223-9.93221-7.236821-9.93221-13.897521L287.955294 731.715097 129.064494 731.715097c-18.541285 0-33.760918-5.965875-45.684482-17.880229C71.464635 701.919491 65.50797 686.733627 65.50797 668.158572L65.50797 191.484126c0-18.541285 5.957689-33.770128 17.872043-45.684482 11.923564-11.914354 27.143197-17.872043 45.684482-17.872043l762.678296 0c18.533099 0 33.760918 5.957689 45.684482 17.872043 11.914354 11.914354 17.872043 27.143197 17.872043 45.684482l0 476.673423c0 18.575054-5.957689 33.760918-17.872043 45.676295-11.923564 11.914354-27.151383 17.880229-45.684482 17.880229L484.582557 731.714074 313.77638 886.631376C311.12397 889.317555 307.818691 890.605897 303.845193 890.605897zM129.064494 159.706375c-21.185508 0-31.777751 10.627035-31.777751 31.777751l0 476.673423c0 21.185508 10.592242 31.778774 31.777751 31.778774l174.780699 0c10.593266 0 15.888875 5.296633 15.888875 15.888875l0 123.138528 148.959613-135.062092c2.65241-2.644223 5.957689-3.966335 9.93221-3.966335l413.116899 0c21.185508 0 31.778774-10.593266 31.778774-31.778774L923.521564 191.484126c0-21.151739-10.593266-31.777751-31.778774-31.777751L129.064494 159.706375z"  /></svg>